# xmcd
# 
# Track frame offsets:
#     187
#     21725
#     32675
#     52400
#     92975
#     116725
#     139462
#     163112
# 
# Disc length: 2499
# 
# Revision: 1
# Processed by: cddbd v1.5.2PL0 Copyright (c) Steve Scherf et al.
# Submitted via: BonkEnc v1.0.8
# 
DISCID=7d09c108
DTITLE=Hampton Hawes - Hamp's Piano
DYEAR=1967
DGENRE=Jazz
TTITLE0=Hamp's blues
TTITLE1=Rhyhm
TTITLE2=Black forest blues
TTITLE3=Autumn leaves
TTITLE4=What is this thing called love?
TTITLE5=Sonora
TTITLE6=I'm all smiles
TTITLE7=My foolish heart
EXTD=YEAR: 1967
EXTT0=
EXTT1=
EXTT2=
EXTT3=
EXTT4=
EXTT5=
EXTT6=
EXTT7=
PLAYORDER=
